<svg width="15" height="18" viewBox="0 0 15 18" fill="none" xmlns="http://www.w3.org/2000/svg">
<path fill-rule="evenodd" clip-rule="evenodd" d="M3.65383 5.72205e-05C1.63587 5.72205e-05 0.000185966 1.59193 0.000185966 3.55561V14.2223C0.000185966 16.186 1.63587 17.7778 3.65383 17.7778H10.9611C12.9791 17.7778 14.6147 16.186 14.6147 14.2223V6.00384C14.6147 5.59639 14.4709 5.2013 14.2074 4.88471L10.6891 0.658708C10.3422 0.242077 9.82066 5.72205e-05 9.26963 5.72205e-05H3.65383ZM11.6735 4.66526L11.4139 4.35348L11.7857 4.80006L11.6735 4.66526ZM12 4.5C10.991 4.5 12.7881 9.01822 12.7881 10.0001L12.7658 14.5001C12.7658 15.4819 13.1147 15.2778 12.7658 15.7778C13.9194 15.5556 12.7879 15.2041 12.7879 14.2223V7.13392L11.7284 4.88471C12.1102 4.66526 11.6765 3.95416 11.4139 4.35348L6.02869 4.06224L12 4.5ZM8.22088 11.1112L8.58624 10.8445C8.98983 10.5499 9.56232 10.6295 9.86501 11.0223C10.1677 11.415 10.0859 11.9722 9.68233 12.2667L7.86289 13.5947C7.70898 13.7096 7.51643 13.7778 7.30747 13.7778C7.0985 13.7778 6.90595 13.7096 6.75204 13.5947L4.9326 12.2667C4.52901 11.9722 4.44723 11.415 4.74992 11.0223C5.05261 10.6295 5.6251 10.5499 6.02869 10.8445L6.39406 11.1112V7.65463C6.39406 7.16371 6.80298 6.76574 7.30747 6.76574C7.81195 6.76574 8.22088 7.16371 8.22088 7.65463V11.1112Z" fill="#234F68"/>
</svg>
