<svg width="25" height="25" viewBox="0 0 25 25" fill="none" xmlns="http://www.w3.org/2000/svg">
<path d="M12.8242 3.42871C13.5073 3.48506 14.1625 3.73763 14.708 4.1582L20.3105 8.47852L20.4688 8.6084C21.2384 9.27513 21.6855 10.2425 21.6855 11.2656C21.6855 11.2972 21.6837 11.329 21.6797 11.3604L20.9375 17.1963C20.8875 17.5897 20.8512 17.8898 20.7803 18.1768L20.6963 18.4619C20.5657 18.839 20.4217 19.0747 20.2158 19.418C19.9555 19.852 19.7526 20.0989 19.5439 20.3174L19.3311 20.5322C18.88 20.9793 18.2408 21.2357 17.7158 21.3818C17.1762 21.5319 16.6352 21.5986 16.2812 21.5986H15V18.5C15 18.0353 15.0003 17.8026 14.9619 17.6094C14.804 16.8163 14.1837 16.196 13.3906 16.0381C13.1974 15.9997 12.9647 16 12.5 16C12.0354 16 11.8026 15.9997 11.6094 16.0381C10.8163 16.196 10.196 16.8163 10.0381 17.6094C9.99966 17.8026 10 18.0353 10 18.5V21.5986H8.7168C8.36284 21.5986 7.82179 21.532 7.28223 21.3818C6.75723 21.2357 6.118 20.9793 5.66699 20.5322L5.4541 20.3174C5.24551 20.099 5.04252 19.852 4.78223 19.418C4.57638 19.0747 4.43234 18.839 4.30176 18.4619L4.21777 18.1768C4.14681 17.8898 4.11056 17.5897 4.06055 17.1963L3.31836 11.3604C3.31437 11.329 3.3125 11.2972 3.3125 11.2656C3.31252 10.2426 3.75977 9.27513 4.5293 8.6084L4.6875 8.47852L10.29 4.1582C10.8355 3.73761 11.4907 3.48511 12.1738 3.42871L12.4678 3.41699C12.4781 3.41699 12.4887 3.41787 12.499 3.41797L12.5303 3.41699L12.8242 3.42871Z" fill="#234F68"/>
</svg>
