<svg width="19" height="19" viewBox="0 0 19 19" fill="none" xmlns="http://www.w3.org/2000/svg">
<path d="M9.21777 0C10.0057 7.32576e-06 10.7722 0.260632 11.3955 0.741211L16.998 5.06152C17.8642 5.72873 18.373 6.75738 18.373 7.84863C18.373 7.88026 18.3712 7.91199 18.3672 7.94336L17.625 13.7793C17.5583 14.3036 17.5163 14.6622 17.3838 15.0449C17.2532 15.422 17.1092 15.6577 16.9033 16.001C16.5563 16.5796 16.3112 16.8251 16.0186 17.1152C15.5675 17.5623 14.9283 17.8187 14.4033 17.9648C13.8637 18.115 13.3227 18.1816 12.9688 18.1816H11.6875V15.083C11.6875 14.6184 11.6878 14.3856 11.6494 14.1924C11.4915 13.3993 10.8712 12.779 10.0781 12.6211C9.88493 12.5827 9.65215 12.583 9.1875 12.583C8.72285 12.583 8.49007 12.5827 8.29688 12.6211C7.50379 12.779 6.88349 13.3993 6.72559 14.1924C6.68716 14.3856 6.6875 14.6184 6.6875 15.083V18.1816H5.4043C5.05034 18.1816 4.50929 18.115 3.96973 17.9648C3.44473 17.8187 2.8055 17.5623 2.35449 17.1152C2.0619 16.8251 1.81674 16.5796 1.46973 16.001C1.26388 15.6578 1.11984 15.422 0.989258 15.0449C0.856794 14.6622 0.814703 14.3036 0.748047 13.7793L0.00585938 7.94336C0.00187358 7.912 0 7.88025 0 7.84863C2.61698e-05 6.75744 0.508898 5.72873 1.375 5.06152L6.97754 0.741211C7.60082 0.260603 8.36737 5.86129e-05 9.15527 0C9.16562 8.66235e-07 9.17619 0.000873723 9.18652 0.000976562C9.19686 0.000885384 9.20743 1.46502e-05 9.21777 0Z" fill="#234F68"/>
</svg>
