<svg width="25" height="25" viewBox="0 0 25 25" fill="none" xmlns="http://www.w3.org/2000/svg">
<path d="M12.8289 3.37891C13.5213 3.43617 14.1852 3.69286 14.7381 4.11914L20.3416 8.43945L20.5018 8.57031C21.2821 9.24642 21.7351 10.228 21.7352 11.2656L21.7293 11.3662L20.9871 17.2021C20.9373 17.5943 20.9008 17.8976 20.8289 18.1885L20.743 18.4785C20.6436 18.7656 20.5363 18.9721 20.4022 19.2021L20.2586 19.4443C19.996 19.8822 19.7902 20.1313 19.5799 20.3516L19.366 20.5684C18.9059 21.0244 18.2562 21.2828 17.7283 21.4297C17.2709 21.5569 16.8123 21.6231 16.4647 21.6416C16.4634 21.6445 16.4621 21.6475 16.4608 21.6504H14.9998V18.5C14.9998 18.0358 15.0001 17.8035 14.9617 17.6104C14.8039 16.8171 14.1837 16.197 13.3904 16.0391C13.1972 16.0006 12.9645 16 12.4998 16C12.0355 16 11.8033 16.0007 11.6102 16.0391C10.8168 16.1969 10.1967 16.817 10.0389 17.6104C10.0005 17.8035 9.99982 18.0357 9.99982 18.5V21.6504H8.53888C8.53758 21.6475 8.53626 21.6445 8.53497 21.6416C8.18709 21.6231 7.7274 21.5571 7.26935 21.4297C6.74143 21.2827 6.09172 21.0245 5.63165 20.5684L5.41779 20.3516C5.20748 20.1313 5.0017 19.8822 4.73907 19.4443L4.59552 19.2021C4.46141 18.9721 4.35409 18.7655 4.2547 18.4785L4.16876 18.1885C4.09688 17.8976 4.06042 17.5943 4.01056 17.2021L3.26837 11.3662L3.26251 11.2656C3.26259 10.2281 3.7157 9.24641 4.49591 8.57031L4.65607 8.43945L10.2596 4.11914C10.8125 3.69282 11.4764 3.43625 12.1688 3.37891L12.4676 3.36719C12.4779 3.36719 12.4886 3.36805 12.4988 3.36816L12.5301 3.36719L12.8289 3.37891ZM12.4988 4.96777C12.4886 4.9676 12.4779 4.9668 12.4676 4.9668L12.3006 4.97363C11.9139 5.00571 11.5433 5.14896 11.2361 5.38574L5.63263 9.70605V9.70703C5.15551 10.0748 4.87641 10.6349 4.86505 11.2285L5.59747 17.001C5.6519 17.4291 5.68142 17.6393 5.7215 17.8018L5.76642 17.9551C5.83763 18.1607 5.90007 18.2691 6.11115 18.6211C6.30139 18.9383 6.4312 19.0972 6.58868 19.2607L6.75861 19.4316C6.92877 19.6003 7.26244 19.7674 7.69806 19.8887C7.95256 19.9595 8.20067 20.0009 8.40021 20.0244V18C8.40024 17.4107 8.56366 16.5624 9.10138 15.8154C9.69799 14.9868 10.6785 14.4005 11.9998 14.4004H12.9998C13.5891 14.4004 14.4374 14.5639 15.1844 15.1016C16.013 15.6982 16.5994 16.6786 16.5994 18V20.0244C16.7987 20.0009 17.0457 19.9593 17.2996 19.8887C17.7352 19.7674 18.0688 19.6003 18.2391 19.4316L18.409 19.2607C18.5665 19.0972 18.6963 18.9383 18.8865 18.6211C19.0977 18.2691 19.1601 18.1607 19.2313 17.9551L19.2762 17.8018C19.3163 17.6393 19.3458 17.4291 19.4002 17.001L20.1326 11.2285C20.1213 10.6348 19.8423 10.0748 19.3651 9.70703V9.70605L13.7615 5.38574C13.4544 5.149 13.0838 5.00563 12.6971 4.97363L12.5301 4.9668L12.4988 4.96777Z" fill="#252B5C"/>
</svg>
