<svg width="25" height="23" viewBox="0 0 25 23" fill="none" xmlns="http://www.w3.org/2000/svg">
<rect x="0.6" y="0.6" width="23.8" height="21.8" rx="10.9" fill="white" stroke="#234F68" stroke-width="1.2"/>
<path d="M15.8531 13.2147C15.3515 12.65 14.9974 12.3625 14.9974 10.8055C14.9974 9.37964 14.206 8.87166 13.5547 8.62495C13.4681 8.59225 13.3867 8.51714 13.3603 8.43538C13.2461 8.07762 12.9258 7.76245 12.5 7.76245C12.0742 7.76245 11.7537 8.0778 11.6406 8.43574C11.6142 8.5184 11.5328 8.59225 11.4463 8.62495C10.7941 8.87202 10.0035 9.3782 10.0035 10.8055C10.0025 12.3625 9.64841 12.65 9.14685 13.2147C8.93904 13.4487 9.12107 13.8 9.48454 13.8H15.5174C15.8789 13.8 16.0597 13.4476 15.8531 13.2147Z" stroke="#252B5C" stroke-width="1.25" stroke-linecap="round" stroke-linejoin="round"/>
<path d="M13.75 13.7998V14.0873C13.75 14.3923 13.6183 14.6848 13.3839 14.9005C13.1495 15.1161 12.8315 15.2373 12.5 15.2373C12.1685 15.2373 11.8505 15.1161 11.6161 14.9005C11.3817 14.6848 11.25 14.3923 11.25 14.0873V13.7998" stroke="#252B5C" stroke-width="1.25" stroke-linecap="round" stroke-linejoin="round"/>
</svg>
