<svg width="25" height="34" viewBox="0 0 25 34" fill="none" xmlns="http://www.w3.org/2000/svg">
<path fill-rule="evenodd" clip-rule="evenodd" d="M15.7179 14.4678C16.5712 13.6145 17.0499 12.4567 17.0499 11.25C17.0499 10.0433 16.5712 8.88552 15.7179 8.03223C14.9179 7.23226 13.8503 6.76184 12.7257 6.70605L12.5001 6.7002C11.2934 6.7002 10.1356 7.17894 9.28235 8.03223C8.42906 8.88552 7.95032 10.0433 7.95032 11.25C7.95032 12.4567 8.42906 13.6145 9.28235 14.4678C9.60368 14.7891 9.96819 15.0573 10.3622 15.2669C8.93882 15.6166 7.62443 16.3498 6.5708 17.4033C6.37481 17.5993 6.18966 17.8046 6.01611 18.0176C5.9354 18.0565 5.85892 18.1083 5.79248 18.1758C5.50215 18.4711 5.48779 18.935 5.74658 19.2471L5.80127 19.3076L6.13233 19.6182C7.82127 21.13 10.0538 22.0506 12.4995 22.0508C14.804 22.0508 16.9201 21.2333 18.5698 19.874L18.8931 19.5947C19.2212 19.2989 19.2475 18.793 18.9517 18.4648C18.8849 18.3908 18.8069 18.3331 18.7231 18.29C18.7023 18.2303 18.6778 18.171 18.6421 18.1162L18.5942 18.0498L18.313 17.7197C18.2163 17.612 18.117 17.5062 18.0142 17.4033C17.0284 16.4175 15.8141 15.7123 14.4959 15.3391C14.9445 15.1204 15.3583 14.8274 15.7179 14.4678Z" fill="#234F68"/>
</svg>
