<svg width="15" height="18" viewBox="0 0 15 18" fill="none" xmlns="http://www.w3.org/2000/svg">
<path fill-rule="evenodd" clip-rule="evenodd" d="M3.65364 0C1.63579 0 0 1.59188 0 3.55555V14.2222C0 16.1859 1.63579 17.7778 3.65364 17.7778H10.9609C12.9788 17.7778 14.6146 16.1859 14.6146 14.2222V6.00378C14.6146 5.59633 14.4707 5.20124 14.2072 4.88465L10.6889 0.658651C10.342 0.24202 9.82045 0 9.26944 0H3.65364ZM10.6184 3.39807V4.8H11.7855L10.6184 3.39807ZM3.65364 1.77778C2.64472 1.77778 1.82682 2.57372 1.82682 3.55555V14.2222C1.82682 15.2041 2.64472 16 3.65364 16H10.9609C11.9698 16 12.7877 15.2041 12.7877 14.2222V6.57778H10.6184C9.60947 6.57778 8.79157 5.78184 8.79157 4.8V1.77778H3.65364ZM8.22069 11.1111L8.58605 10.8444C8.98962 10.5499 9.56215 10.6295 9.86483 11.0222C10.1675 11.415 10.0857 11.9721 9.68215 12.2667L7.86271 13.5946C7.7088 13.7095 7.51624 13.7778 7.30728 13.7778C7.09833 13.7778 6.90576 13.7095 6.75185 13.5946L4.93241 12.2667C4.52884 11.9721 4.44705 11.415 4.74973 11.0222C5.05241 10.6295 5.62494 10.5499 6.02851 10.8444L6.39387 11.1111V7.65457C6.39387 7.16365 6.80282 6.76568 7.30728 6.76568C7.81174 6.76568 8.22069 7.16365 8.22069 7.65457V11.1111Z" fill="#234F68"/>
</svg>
