<?xml version="1.0" encoding="UTF-8"?>
<svg version="1.1" xmlns="http://www.w3.org/2000/svg" width="28" height="28">
<path d="M0 0 C9.24 0 18.48 0 28 0 C28 9.24 28 18.48 28 28 C18.76 28 9.52 28 0 28 C0 18.76 0 9.52 0 0 Z " fill="#FEFEFE" transform="translate(0,0)"/>
<path d="M0 0 C1.14082031 0.30164063 1.14082031 0.30164063 2.3046875 0.609375 C4.125 1.25 4.125 1.25 5.125 2.25 C5.2233721 3.58043625 5.25578592 4.91593344 5.2578125 6.25 C5.25974609 7.4565625 5.25974609 7.4565625 5.26171875 8.6875 C5.25785156 9.533125 5.25398438 10.37875 5.25 11.25 C5.25580078 12.5184375 5.25580078 12.5184375 5.26171875 13.8125 C5.26042969 14.616875 5.25914063 15.42125 5.2578125 16.25 C5.25668457 16.9925 5.25555664 17.735 5.25439453 18.5 C5.125 20.25 5.125 20.25 4.125 21.25 C1.61363896 21.34975032 -0.86403415 21.38882183 -3.375 21.375 C-4.07753906 21.37886719 -4.78007812 21.38273437 -5.50390625 21.38671875 C-10.74838622 21.37661378 -10.74838622 21.37661378 -11.875 20.25 C-11.96131874 18.90732587 -11.98206473 17.56025678 -11.97265625 16.21484375 C-11.96943359 15.40595703 -11.96621094 14.59707031 -11.96289062 13.76367188 C-11.95451172 12.91353516 -11.94613281 12.06339844 -11.9375 11.1875 C-11.93298828 10.33349609 -11.92847656 9.47949219 -11.92382812 8.59960938 C-11.91200373 6.48304337 -11.89406769 4.36651315 -11.875 2.25 C-4.55662186 -1.29288233 -4.55662186 -1.29288233 0 0 Z " fill="#C7C7C7" transform="translate(17.875,3.75)"/>
<path d="M0 0 C1.15822266 0.31904297 1.15822266 0.31904297 2.33984375 0.64453125 C2.90832031 0.82371094 3.47679687 1.00289063 4.0625 1.1875 C-0.41293578 3.67617691 -4.93184733 4.26540609 -9.9375 5.1875 C-9.9375 10.1375 -9.9375 15.0875 -9.9375 20.1875 C-10.5975 20.1875 -11.2575 20.1875 -11.9375 20.1875 C-11.9375 14.2475 -11.9375 8.3075 -11.9375 2.1875 C-4.0625 -1.1875 -4.0625 -1.1875 0 0 Z " fill="#BDBDBD" transform="translate(17.9375,3.8125)"/>
<path d="M0 0 C0 5.94 0 11.88 0 18 C-0.66 18 -1.32 18 -2 18 C-2.33 14.37 -2.66 10.74 -3 7 C-5.31 6.67 -7.62 6.34 -10 6 C-10 5.01 -10 4.02 -10 3 C-7.69 3.33 -5.38 3.66 -3 4 C-3 3.34 -3 2.68 -3 2 C-5.31 2 -7.62 2 -10 2 C-10 1.67 -10 1.34 -10 1 C-6.46315341 0.19157792 -3.72159473 0 0 0 Z " fill="#D1D1D1" transform="translate(23,6)"/>
<path d="M0 0 C1.21236328 0.01353516 1.21236328 0.01353516 2.44921875 0.02734375 C3.37154297 0.04474609 3.37154297 0.04474609 4.3125 0.0625 C4.3125 0.7225 4.3125 1.3825 4.3125 2.0625 C2.0025 2.0625 -0.3075 2.0625 -2.6875 2.0625 C-3.0175 3.3825 -3.3475 4.7025 -3.6875 6.0625 C-5.0075 5.7325 -6.3275 5.4025 -7.6875 5.0625 C-7.6875 3.7425 -7.6875 2.4225 -7.6875 1.0625 C-4.80538698 0.10179566 -2.98899956 -0.04331883 0 0 Z " fill="#B3B3B3" transform="translate(15.6875,7.9375)"/>
<path d="M0 0 C2.31 0 4.62 0 7 0 C7 0.66 7 1.32 7 2 C5.02 2 3.04 2 1 2 C0.67 1.34 0.34 0.68 0 0 Z M-5 1 C-2.525 1.99 -2.525 1.99 0 3 C-0.99 4.485 -0.99 4.485 -2 6 C-2.66 6 -3.32 6 -4 6 C-4.33 4.35 -4.66 2.7 -5 1 Z " fill="#BFBFBF" transform="translate(13,12)"/>
<path d="M0 0 C1.22589844 0.29197266 1.22589844 0.29197266 2.4765625 0.58984375 C3.41628906 0.82380859 3.41628906 0.82380859 4.375 1.0625 C4.375 1.3925 4.375 1.7225 4.375 2.0625 C-0.575 2.0625 -5.525 2.0625 -10.625 2.0625 C-4.375 -1.0625 -4.375 -1.0625 0 0 Z " fill="#232323" transform="translate(17.625,3.9375)"/>
</svg>
