<svg width="19" height="20" viewBox="0 0 19 20" fill="none" xmlns="http://www.w3.org/2000/svg">
<path d="M9.23077 9.55823e-05C7.61473 0.000531138 6.02709 0.44205 4.62655 1.28052C3.22601 2.119 2.06161 3.32506 1.24974 4.77816C0.43787 6.23126 0.00696241 7.88051 8.52632e-05 9.56107C-0.00679189 11.2416 0.410602 12.8946 1.21055 14.3549L0.379375 17.3803C0.325117 17.5778 0.322637 17.7868 0.372195 17.9856C0.421752 18.1845 0.521542 18.366 0.661224 18.5112C0.800906 18.6565 0.975398 18.7602 1.16662 18.8117C1.35784 18.8633 1.55883 18.8607 1.74876 18.8042L4.65799 17.9399C5.88623 18.6681 7.2589 19.0932 8.67014 19.1824C10.0814 19.2716 11.4934 19.0225 12.7975 18.4543C14.1015 17.8862 15.2625 17.0141 16.1912 15.9054C17.1198 14.7967 17.7911 13.4811 18.1534 12.0599C18.5156 10.6386 18.5591 9.1499 18.2805 7.70843C18.002 6.26697 17.4087 4.91131 16.5465 3.74603C15.6844 2.58074 14.5764 1.63696 13.308 0.987486C12.0395 0.338011 10.6446 0.000195799 9.23077 9.55823e-05ZM9.23077 18.4308C7.70556 18.4319 6.20829 18.0052 4.89668 17.1957C4.85345 17.1689 4.8054 17.1516 4.75549 17.1449C4.70559 17.1381 4.65489 17.1421 4.60651 17.1565L1.54584 18.0659C1.48253 18.0847 1.41553 18.0856 1.35179 18.0684C1.28805 18.0512 1.22989 18.0166 1.18334 17.9682C1.13678 17.9198 1.10352 17.8593 1.08701 17.793C1.07051 17.7267 1.07134 17.657 1.08944 17.5912L1.96384 14.4084C1.97766 14.3581 1.98144 14.3054 1.97496 14.2535C1.96848 14.2016 1.95188 14.1516 1.92616 14.1066C0.969632 12.4308 0.572941 10.473 0.797883 8.53823C1.02283 6.60348 1.85677 4.80042 3.16981 3.40992C4.48284 2.01942 6.20124 1.11957 8.05731 0.850539C9.91338 0.581509 11.8029 0.95841 13.4315 1.92253C15.0602 2.88664 16.3364 4.38384 17.0615 6.18088C17.7866 7.97793 17.9199 9.97391 17.4405 11.8579C16.9611 13.7419 15.8959 15.4081 14.411 16.597C12.9261 17.7859 11.1048 18.4306 9.23077 18.4308ZM11.4561 14.5911H11.4461C10.524 14.5911 9.6109 14.4021 8.75911 14.0348C7.90733 13.6675 7.13352 13.1292 6.48195 12.4507C5.83039 11.7721 5.31385 10.9666 4.96188 10.0803C4.60991 9.194 4.42942 8.24422 4.43073 7.28529C4.43328 6.67604 4.66782 6.09265 5.08301 5.6628C5.49821 5.23296 6.06025 4.99168 6.64611 4.99176C6.69317 4.99182 6.73938 5.00478 6.78009 5.02934C6.82079 5.05389 6.85455 5.08917 6.87796 5.13162L7.95713 7.09574C7.98962 7.15497 8.00638 7.22212 8.00568 7.2903C8.00498 7.35849 7.98685 7.42525 7.95316 7.48375L7.08646 8.9859C7.05582 9.03899 7.03798 9.09901 7.03447 9.16083C7.03096 9.22264 7.04189 9.28443 7.06632 9.3409C7.54823 10.4563 8.40681 11.3492 9.47939 11.8503C9.5337 11.8757 9.59313 11.8871 9.65258 11.8835C9.71204 11.8798 9.76976 11.8612 9.82081 11.8293L11.2652 10.9281C11.3214 10.893 11.3857 10.8742 11.4512 10.8734C11.5168 10.8727 11.5814 10.8901 11.6384 10.9239L13.527 12.0462C13.5679 12.0706 13.6018 12.1057 13.6254 12.148C13.649 12.1903 13.6615 12.2383 13.6615 12.2873C13.6616 12.8965 13.4296 13.481 13.0162 13.9128C12.6029 14.3445 12.0419 14.5884 11.4561 14.5911Z" fill="#8BC83F"/>
</svg>
